<svg width="25" height="25" viewBox="0 0 25 25" fill="none" xmlns="http://www.w3.org/2000/svg">
<g clip-path="url(#clip0_8_22)">
<path d="M12.5 0.5C5.8835 0.5 0.5 5.8835 0.5 12.5C0.5 19.1165 5.8835 24.5 12.5 24.5C19.1165 24.5 24.5 19.1165 24.5 12.5C24.5 5.8835 19.1165 0.5 12.5 0.5ZM12.5 23.5C6.4345 23.5 1.5 18.5655 1.5 12.5C1.5 6.4345 6.4345 1.5 12.5 1.5C18.5655 1.5 23.5 6.4345 23.5 12.5C23.5 18.5655 18.5655 23.5 12.5 23.5Z" fill="#474747"/>
<path d="M14.6465 5.1465L7.293 12.5L14.6465 19.8535L15.3535 19.1465L8.707 12.5L15.3535 5.8535L14.6465 5.1465Z" fill="#474747"/>
</g>
<defs>
<clipPath id="clip0_8_22">
<rect width="25" height="25" fill="white"/>
</clipPath>
</defs>
</svg>
