<svg width="177" height="97" viewBox="0 0 177 97" fill="none" xmlns="http://www.w3.org/2000/svg">
<g clip-path="url(#clip0_8_115)">
<path d="M32.2268 96.2516C25.9809 94.6249 20.4617 90.9468 16.5538 85.8069C12.646 80.667 10.5759 74.3629 10.6753 67.9053C10.7001 66.2964 10.8691 64.6536 11.545 63.1936C12.2209 61.7335 13.4763 60.4706 15.0468 60.1246C16.7607 59.7471 18.5692 60.5189 19.8464 61.7232C21.1237 62.9275 21.9612 64.5165 22.7317 66.0943C27.3727 75.5979 30.8988 85.7952 32.219 96.29L32.2268 96.2516Z" fill="#F2F2F2"/>
<path d="M14.2692 60.4417L17.5219 67.8371L20.7745 75.2325C21.8047 77.5747 22.8328 79.9178 23.8976 82.2445C24.953 84.5507 26.0445 86.841 27.209 89.0943C28.3718 91.3443 29.6077 93.5577 30.9492 95.7064C31.1162 95.974 31.2849 96.2405 31.4553 96.506C31.5732 96.6899 31.8678 96.5193 31.7491 96.3341C30.3819 94.2014 29.1221 92.0016 27.9406 89.7609C26.7577 87.5178 25.6522 85.2348 24.5875 82.9334C23.5171 80.6198 22.4879 78.2875 21.4614 75.9541C20.3809 73.498 19.3006 71.0418 18.2205 68.5856L14.9678 61.1902L14.5631 60.2699C14.475 60.0697 14.1817 60.2428 14.2692 60.4417V60.4417Z" fill="white"/>
<path d="M30.8699 96.3031C27.1883 97.1458 23.3306 96.7272 19.915 95.1143C16.4995 93.5015 13.7241 90.7877 12.0336 87.4082C11.6124 86.5662 11.257 85.6676 11.214 84.727C11.171 83.7863 11.4821 82.7915 12.2041 82.1877C12.9921 81.5286 14.1393 81.4408 15.1273 81.721C16.1153 82.0012 16.9788 82.5999 17.8045 83.211C22.7778 86.8913 27.3596 91.233 30.8762 96.3251L30.8699 96.3031Z" fill="#F2F2F2"/>
<path d="M11.886 82.5623L15.5698 85.5232L19.2536 88.4841C20.4203 89.4218 21.5863 90.3606 22.7667 91.2809C23.9369 92.1931 25.1214 93.0873 26.3339 93.9426C27.5446 94.7967 28.7834 95.6119 30.0595 96.3651C30.2184 96.4589 30.3779 96.5517 30.538 96.6435C30.6488 96.7071 30.7558 96.5389 30.6442 96.4749C29.359 95.737 28.1115 94.9352 26.8936 94.0911C25.6743 93.246 24.4844 92.3594 23.3108 91.4522C22.1309 90.5402 20.9673 89.6073 19.8049 88.6731C18.5813 87.6899 17.3578 86.7065 16.1344 85.723L12.4506 82.7622L11.9922 82.3937C11.8925 82.3136 11.7869 82.4827 11.886 82.5623Z" fill="white"/>
<path d="M146.372 96.0664C155.082 93.7979 162.779 88.6686 168.228 81.5008C173.678 74.333 176.565 65.5417 176.426 56.5363C176.392 54.2926 176.156 52.0018 175.213 49.9656C174.271 47.9294 172.52 46.1684 170.33 45.6859C167.94 45.1594 165.418 46.2357 163.637 47.9152C161.856 49.5946 160.688 51.8105 159.613 54.0108C153.141 67.2639 148.224 81.4846 146.383 96.12L146.372 96.0664Z" fill="#F2F2F2"/>
<path d="M171.414 46.1281L166.878 56.4413L162.342 66.7544C160.906 70.0206 159.472 73.2883 157.987 76.5329C156.515 79.749 154.993 82.9429 153.369 86.0852C151.748 89.223 150.024 92.3096 148.153 95.306C147.92 95.6792 147.685 96.0509 147.448 96.4211C147.283 96.6775 146.872 96.4397 147.038 96.1814C148.944 93.2073 150.701 90.1395 152.349 87.0148C153.999 83.8868 155.54 80.7029 157.025 77.4937C158.518 74.2672 159.953 71.0147 161.385 67.7607C162.891 64.3356 164.398 60.9104 165.904 57.485L170.44 47.1718L171.004 45.8884C171.127 45.6093 171.536 45.8507 171.414 46.1281V46.1281Z" fill="white"/>
<path d="M148.264 96.1381C153.398 97.3134 158.778 96.7296 163.541 94.4804C168.304 92.2312 172.174 88.4468 174.532 83.7339C175.119 82.5596 175.615 81.3066 175.675 79.9948C175.735 78.6831 175.301 77.2958 174.294 76.4537C173.195 75.5346 171.595 75.4121 170.218 75.8029C168.84 76.1936 167.636 77.0286 166.484 77.8807C159.549 83.0131 153.159 89.0678 148.255 96.1689L148.264 96.1381Z" fill="#F2F2F2"/>
<path d="M174.738 76.9762L169.601 81.1052L164.463 85.2342C162.836 86.5419 161.21 87.8511 159.564 89.1345C157.932 90.4067 156.28 91.6536 154.59 92.8464C152.901 94.0374 151.174 95.1743 149.394 96.2246C149.173 96.3554 148.95 96.4849 148.727 96.6129C148.572 96.7016 148.423 96.4671 148.579 96.3778C150.371 95.3487 152.111 94.2306 153.809 93.0534C155.509 91.875 157.169 90.6385 158.806 89.3734C160.451 88.1016 162.074 86.8006 163.695 85.4979C165.401 84.1267 167.107 82.7554 168.813 81.3839L173.95 77.2549L174.59 76.741C174.729 76.6293 174.876 76.8651 174.738 76.9762V76.9762Z" fill="white"/>
<path d="M43.8808 29.8666V29.8687L42.186 31.2861L30.5316 33.8768C30.1729 34.0219 29.8463 34.2364 29.5705 34.5078C29.2946 34.7792 29.0749 35.1024 28.9238 35.4588C28.6188 36.1786 28.6119 36.9903 28.9049 37.7151C29.0499 38.074 29.2642 38.4008 29.5354 38.6769C29.8067 38.9529 30.1296 39.1728 30.4858 39.324C31.2051 39.6293 32.0162 39.6361 32.7406 39.343L40.164 38.0923C40.5752 38.024 40.9812 37.9275 41.3792 37.8036C41.5356 37.7568 41.6902 37.7039 41.8426 37.649C42.5023 34.7722 43.4289 31.9632 44.6103 29.2586L43.8808 29.8666Z" fill="#2F2E41"/>
<path d="M140.68 37.0247L139.065 37.0145L138.201 37.0105L133.253 28.3537C133.294 28.2631 133.33 28.1701 133.36 28.0751C133.911 26.3751 132.458 25.2058 131.074 25.2302C130.917 25.23 130.76 25.2484 130.607 25.2851C133.333 30.2214 135.161 35.6031 136.006 41.1792C136.147 41.219 136.29 41.2476 136.435 41.2647C137.19 41.3327 137.95 41.3068 138.699 41.1874C139.707 41.0593 140.66 40.8783 141.168 40.9169L140.68 37.0247Z" fill="#A0616A"/>
<path d="M146.006 37.1894L140.068 36.3638C139.851 36.3338 139.63 36.383 139.446 36.5024C139.261 36.6219 139.126 36.8036 139.064 37.0146C139.052 37.0572 139.042 37.1007 139.036 37.1447L138.561 40.5671C138.528 40.8072 138.592 41.0502 138.738 41.2435C138.883 41.4369 139.099 41.565 139.339 41.6002L145.277 42.4258C145.971 42.5226 146.675 42.3396 147.234 41.917C147.793 41.4945 148.161 40.867 148.258 40.1726C148.355 39.4782 148.172 38.7738 147.749 38.2144C147.327 37.6549 146.7 37.2862 146.006 37.1894V37.1894Z" fill="#6C63FF"/>
<path d="M136.435 41.2647C135.613 35.6437 133.798 30.2141 131.074 25.2302C126.695 17.217 120.142 10.6055 112.17 6.15776C104.199 1.71006 95.1335 -0.392686 86.0194 0.0919486C76.9054 0.576584 68.1138 3.62887 60.6582 8.8969C53.2027 14.1649 47.3867 21.4342 43.8808 29.8667V29.8687C42.8176 32.4357 41.9805 35.0908 41.3792 37.8036C40.6083 41.2823 40.2205 44.8351 40.2229 48.3983C40.2229 61.2344 45.3185 73.5447 54.3887 82.6211C63.4589 91.6976 75.7608 96.7967 88.588 96.7967C101.415 96.7967 113.717 91.6976 122.787 82.6211C131.858 73.5447 136.953 61.2344 136.953 48.3983C136.954 46.011 136.781 43.6268 136.435 41.2647V41.2647ZM88.588 96.3899C62.1437 96.3899 40.6293 74.8608 40.6293 48.3983C40.6217 41.8118 41.9772 35.2951 44.6103 29.2586C52.0113 12.2928 68.9392 0.406711 88.588 0.406711C106.664 0.406711 122.435 10.4666 130.607 25.2851C133.333 30.2214 135.161 35.6031 136.006 41.1793C136.366 43.5687 136.547 45.9818 136.547 48.3983C136.547 74.8608 115.032 96.3899 88.588 96.3899Z" fill="#3F3D56"/>
<path d="M72.8897 43.5178C70.5365 43.5174 68.2564 42.6996 66.4389 41.204C64.6213 39.7083 63.3789 37.6277 62.9239 35.3173C62.469 33.007 62.8296 30.6102 63.9443 28.5363C65.0589 26.4625 66.8584 24.8401 69.0355 23.9464C71.2126 23.0526 73.6323 22.9429 75.8812 23.6359C78.1302 24.329 80.069 25.7818 81.3665 27.7462C82.664 29.7107 83.2398 32.065 82.9955 34.4071C82.7513 36.7492 81.7021 38.9337 80.0271 40.5878C78.1289 42.4707 75.5625 43.5243 72.8897 43.5178ZM72.8897 23.5891C70.9603 23.589 69.0741 24.1614 67.4698 25.2339C65.8655 26.3065 64.6151 27.8311 63.8767 29.6148C63.1382 31.3986 62.945 33.3614 63.3214 35.2551C63.6978 37.1487 64.6268 38.8881 65.9912 40.2534C67.3555 41.6186 69.0937 42.5484 70.9861 42.925C72.8784 43.3016 74.8399 43.1083 76.6224 42.3693C78.4049 41.6304 79.9284 40.3791 81.0003 38.7737C82.0721 37.1683 82.6441 35.2809 82.644 33.3501C82.6411 30.7622 81.6125 28.2812 79.7838 26.4513C77.9551 24.6214 75.4758 23.592 72.8897 23.5891Z" fill="#3F3D56"/>
<path d="M104.185 43.5178C102.175 43.5178 100.211 42.9215 98.5397 41.8043C96.8688 40.687 95.5665 39.099 94.7974 37.2411C94.0284 35.3832 93.8272 33.3388 94.2192 31.3665C94.6113 29.3941 95.579 27.5824 97 26.1604C98.421 24.7385 100.231 23.7701 102.202 23.3778C104.173 22.9854 106.216 23.1868 108.073 23.9564C109.93 24.7259 111.517 26.0292 112.633 27.7012C113.75 29.3733 114.345 31.3391 114.345 33.3501C114.342 36.0458 113.271 38.6303 111.366 40.5364C109.461 42.4426 106.879 43.5148 104.185 43.5178V43.5178ZM104.185 23.5891C102.256 23.5891 100.37 24.1616 98.7655 25.2341C97.1614 26.3067 95.9112 27.8311 95.1729 29.6147C94.4346 31.3983 94.2415 33.3609 94.6178 35.2544C94.9942 37.1478 95.9232 38.8871 97.2874 40.2522C98.6516 41.6173 100.39 42.5469 102.282 42.9236C104.174 43.3002 106.135 43.1069 107.918 42.3681C109.7 41.6293 111.223 40.3782 112.295 38.773C113.367 37.1678 113.939 35.2807 113.939 33.3501C113.936 30.7622 112.907 28.2812 111.079 26.4513C109.25 24.6214 106.771 23.592 104.185 23.5891V23.5891Z" fill="#3F3D56"/>
<path d="M79.8843 40.4431C78.0205 42.283 75.5077 43.3145 72.8897 43.3145C70.2716 43.3145 67.7588 42.283 65.895 40.4431C66.518 39.1131 67.5068 37.9882 68.7455 37.2002C69.9843 36.4122 71.4218 35.9937 72.8897 35.9937C74.3575 35.9937 75.795 36.4122 77.0338 37.2002C78.2725 37.9882 79.2613 39.1131 79.8843 40.4431V40.4431Z" fill="#3F3D56"/>
<path d="M111.179 40.4431C109.316 42.283 106.803 43.3145 104.185 43.3145C101.567 43.3145 99.0539 42.283 97.1901 40.4431C97.8131 39.1131 98.8019 37.9882 100.041 37.2002C101.279 36.4122 102.717 35.9937 104.185 35.9937C105.653 35.9937 107.09 36.4122 108.329 37.2002C109.568 37.9882 110.556 39.1131 111.179 40.4431V40.4431Z" fill="#3F3D56"/>
<path d="M82.0343 50.0252C82.0343 48.9021 85.6736 47.9916 90.1629 47.9916C94.6522 47.9916 98.2915 48.9021 98.2915 50.0252C98.2915 51.1482 94.6522 55.3124 90.1629 55.3124C85.6736 55.3124 82.0343 51.1482 82.0343 50.0252Z" fill="#3F3D56"/>
<path d="M63.0338 49.7201C64.9417 49.7201 66.4884 48.1724 66.4884 46.2631C66.4884 44.3538 64.9417 42.8061 63.0338 42.8061C61.1258 42.8061 59.5791 44.3538 59.5791 46.2631C59.5791 48.1724 61.1258 49.7201 63.0338 49.7201Z" fill="#FF6584"/>
<path d="M114.142 49.8218C116.05 49.8218 117.597 48.274 117.597 46.3648C117.597 44.4555 116.05 42.9078 114.142 42.9078C112.234 42.9078 110.688 44.4555 110.688 46.3648C110.688 48.274 112.234 49.8218 114.142 49.8218Z" fill="#FF6584"/>
<path d="M40.2079 94.2269L42.6993 94.2267L43.8844 84.6104L40.2075 84.6106L40.2079 94.2269Z" fill="#FFB8B8"/>
<path d="M47.5041 96.9482L39.6741 96.9486L39.6739 93.9213L44.4787 93.921C45.2811 93.921 46.0506 94.2399 46.6179 94.8076C47.1853 95.3753 47.5041 96.1453 47.5041 96.9482V96.9482V96.9482Z" fill="#2F2E41"/>
<path d="M27.8117 94.2269L30.3032 94.2267L31.4883 84.6104L27.8113 84.6106L27.8117 94.2269Z" fill="#FFB8B8"/>
<path d="M35.108 96.9482L27.278 96.9485L27.2778 93.9212L32.0826 93.921C32.8849 93.921 33.6544 94.2399 34.2218 94.8076C34.7892 95.3753 35.1079 96.1453 35.108 96.9482V96.9482V96.9482Z" fill="#2F2E41"/>
<path d="M40.8888 55.034L43.0788 72.3976C43.3799 74.7847 43.5905 77.1806 43.7108 79.5853L44.3008 91.3938C44.3063 91.5039 44.2894 91.614 44.2511 91.7173C44.2127 91.8207 44.1538 91.9152 44.0779 91.995C44.002 92.0749 43.9106 92.1385 43.8094 92.182C43.7081 92.2254 43.5991 92.2478 43.489 92.2478H40.1651C39.9706 92.2478 39.7826 92.1781 39.6352 92.0512C39.4877 91.9244 39.3906 91.7488 39.3614 91.5565L36.3721 71.8487C36.3577 71.7537 36.3102 71.6669 36.2379 71.6036C36.1656 71.5403 36.0732 71.5047 35.9772 71.5031C35.8812 71.5014 35.7877 71.5339 35.7133 71.5947C35.6389 71.6554 35.5884 71.7406 35.5708 71.8351L31.9695 91.1368C31.9339 91.3103 31.8426 91.4674 31.7096 91.5843C31.5766 91.7012 31.4091 91.7714 31.2326 91.7843L28.1734 91.9786C28.0598 91.9869 27.9458 91.9712 27.8386 91.9326C27.7315 91.894 27.6336 91.8333 27.5514 91.7544C27.4692 91.6755 27.4045 91.5802 27.3615 91.4747C27.3185 91.3692 27.298 91.2558 27.3016 91.1419L28.2895 59.5078L40.8888 55.034Z" fill="#2F2E41"/>
<path d="M31.1857 30.302C33.9423 30.302 36.1769 28.0659 36.1769 25.3074C36.1769 22.549 33.9423 20.3129 31.1857 20.3129C28.4292 20.3129 26.1946 22.549 26.1946 25.3074C26.1946 28.0659 28.4292 30.302 31.1857 30.302Z" fill="#FFB8B8"/>
<path d="M27.2734 59.9145C28.4927 62.7615 33.7763 64.795 34.9956 60.7279C35.9385 57.5841 39.6736 56.2623 41.3216 55.825C41.5289 55.7698 41.706 55.6351 41.8148 55.4502C41.9236 55.2652 41.9552 55.0449 41.9029 54.8367L37.296 36.728C37.0276 35.6732 36.4932 34.7049 35.7439 33.9159C34.9945 33.1269 34.0554 32.5435 33.0162 32.2217C29.3544 31.087 25.4933 33.4235 24.8735 37.2079C24.7042 38.2691 24.5963 39.3392 24.5504 40.4128C24.1683 48.4026 26.4707 58.0396 27.2734 59.9145Z" fill="#6C63FF"/>
<path d="M54.9962 43.6006C54.7504 43.4307 54.4704 43.3167 54.1758 43.2668C53.8813 43.2169 53.5794 43.2323 53.2914 43.3118C53.0034 43.3913 52.7363 43.533 52.509 43.7269C52.2816 43.9209 52.0996 44.1623 51.9756 44.4343L44.7458 43.7522L46.5184 47.0859L53.1122 47.2225C53.5826 47.4007 54.1019 47.4 54.5719 47.2206C55.0418 47.0411 55.4296 46.6954 55.6618 46.249C55.8941 45.8025 55.9546 45.2863 55.8319 44.7982C55.7092 44.3101 55.4119 43.884 54.9962 43.6006V43.6006Z" fill="#FFB8B8"/>
<path d="M51.4009 47.3081C51.315 47.4037 51.21 47.4801 51.0926 47.5324C50.9753 47.5847 50.8483 47.6117 50.7198 47.6117L41.2825 47.3958C38.9982 47.3941 36.7922 46.5621 35.075 45.0546L29.4164 40.0885C29.0766 39.9025 28.7768 39.6513 28.5342 39.3492C28.2915 39.0472 28.1108 38.7003 28.0022 38.3282C27.8937 37.9562 27.8596 37.5665 27.9017 37.1812C27.9439 36.796 28.0615 36.4229 28.248 36.0832C28.4344 35.7435 28.6859 35.4439 28.9881 35.2016C29.2904 34.9593 29.6374 34.779 30.0093 34.671C30.3812 34.563 30.7708 34.5295 31.1557 34.5723C31.5406 34.6151 31.9133 34.7335 32.2524 34.9206L41.6243 42.3209L50.7493 44.0806C50.9318 44.1255 51.0961 44.2253 51.2201 44.3667C51.3441 44.508 51.4216 44.6841 51.4424 44.871L51.6297 46.5977C51.6498 46.7829 51.6129 46.9698 51.524 47.1335C51.49 47.1964 51.4487 47.2549 51.4009 47.3081V47.3081Z" fill="#2F2E41"/>
<path d="M27.3973 29.3927C27.5048 29.4564 27.6255 29.4946 27.7501 29.5042C27.8747 29.5138 27.9998 29.4946 28.1158 29.448C28.2318 29.4014 28.3355 29.3288 28.4189 29.2357C28.5023 29.1426 28.5632 29.0315 28.5968 28.9111L28.5996 28.8997C28.6902 28.5206 28.615 28.1248 28.589 27.7359C28.563 27.347 28.601 26.9198 28.8657 26.6338C29.3591 26.1008 30.2369 26.3834 30.9504 26.2486C31.3683 26.1553 31.7379 25.9127 31.99 25.5664C32.2421 25.22 32.3594 24.7936 32.3201 24.367C32.3099 24.2861 32.294 24.2052 32.2761 24.1243C32.2315 23.9194 32.2349 23.707 32.2862 23.5036C32.3374 23.3003 32.4351 23.1116 32.5715 22.9523C32.7079 22.7931 32.8793 22.6677 33.0723 22.5859C33.2652 22.5041 33.4745 22.4682 33.6837 22.481C34.4047 22.5222 35.183 22.7408 35.7796 22.2064C35.9983 21.9956 36.1501 21.7251 36.2161 21.4285C36.2821 21.1319 36.2594 20.8224 36.1508 20.5387C35.8101 19.5548 34.8474 19.0397 33.8947 18.7565C32.7164 18.4158 31.4771 18.3422 30.2668 18.5409C29.0565 18.7397 27.9057 19.2058 26.898 19.9054C26.2962 20.3298 25.7342 20.8631 25.4777 21.5537C25.2213 22.2443 25.345 23.1155 25.9234 23.5714C25.4751 24.0464 25.1594 24.6309 25.0079 25.2664C24.8565 25.9019 24.8746 26.5661 25.0605 27.1924C25.3461 28.1135 26.7094 28.9966 27.3973 29.3927Z" fill="#2F2E41"/>
<path d="M134.961 94.1884H132.47L131.285 84.5722L134.962 84.5724L134.961 94.1884Z" fill="#A0616A"/>
<path d="M130.691 93.8827H135.495V96.91H127.665C127.665 96.5125 127.744 96.1188 127.896 95.7515C128.048 95.3842 128.27 95.0505 128.551 94.7694C128.832 94.4883 129.166 94.2653 129.533 94.1132C129.9 93.961 130.293 93.8827 130.691 93.8827V93.8827Z" fill="#2F2E41"/>
<path d="M152.641 94.1884H150.15L148.964 84.5722L152.642 84.5724L152.641 94.1884Z" fill="#A0616A"/>
<path d="M148.37 93.8827H153.175V96.91H145.345C145.345 96.5125 145.423 96.1188 145.575 95.7515C145.727 95.3842 145.95 95.0505 146.231 94.7694C146.512 94.4883 146.845 94.2653 147.213 94.1132C147.58 93.961 147.973 93.8827 148.37 93.8827V93.8827Z" fill="#2F2E41"/>
<path d="M135.003 88.2327C134.976 88.2327 134.949 88.2315 134.922 88.2293L131.396 87.9469C131.256 87.9357 131.12 87.8957 130.996 87.8293C130.873 87.7629 130.764 87.6716 130.677 87.5611C130.591 87.4506 130.528 87.3234 130.493 87.1874C130.458 87.0514 130.451 86.9097 130.474 86.7711L135.82 53.6813L136.178 49.0141C136.194 48.7959 136.28 48.5887 136.424 48.4237C136.567 48.2587 136.76 48.1447 136.974 48.0988L142.351 46.9218C142.549 46.8776 142.755 46.8939 142.944 46.9686C143.132 47.0433 143.293 47.173 143.407 47.3408L144.718 49.2586C145.233 50.0041 145.793 50.7177 146.394 51.3956C147.324 52.4558 148.906 54.8099 149.048 58.6625C149.086 59.9281 149.217 61.1892 149.441 62.4355L153.77 85.7726C153.792 85.9094 153.785 86.0492 153.751 86.1836C153.717 86.3179 153.656 86.4438 153.572 86.5536C153.487 86.6634 153.381 86.7547 153.26 86.822C153.139 86.8893 153.005 86.9311 152.868 86.9448L149.525 87.1982C149.286 87.2218 149.046 87.1595 148.849 87.0224C148.651 86.8853 148.509 86.6824 148.448 86.4499L142.518 64.3858C142.507 64.3426 142.481 64.3044 142.446 64.2771C142.41 64.2499 142.367 64.2352 142.322 64.2353C142.277 64.2353 142.234 64.2502 142.198 64.2775C142.163 64.3048 142.137 64.3431 142.126 64.3864L135.985 87.4774C135.927 87.6939 135.8 87.8852 135.622 88.0217C135.445 88.1582 135.227 88.2324 135.003 88.2327Z" fill="#2F2E41"/>
<path d="M144.38 31.9258C147.137 31.9258 149.372 29.6896 149.372 26.9312C149.372 24.1727 147.137 21.9366 144.38 21.9366C141.624 21.9366 139.389 24.1727 139.389 26.9312C139.389 29.6896 141.624 31.9258 144.38 31.9258Z" fill="#A0616A"/>
<path d="M135.921 49.765L135.817 42.6325C135.437 38.0707 137.456 35.6755 139.217 34.4707C139.671 34.164 140.182 33.9527 140.72 33.8497C141.258 33.7466 141.812 33.7539 142.347 33.8711L146.275 34.7209C146.822 34.8402 147.339 35.0692 147.795 35.3942C148.251 35.7191 148.636 36.1332 148.928 36.6115C149.207 37.0627 149.39 37.5665 149.466 38.0915C149.542 38.6165 149.509 39.1516 149.369 39.6634C149.097 40.6213 148.491 41.4506 147.663 42.0023C144.287 44.3866 144.05 48.3915 144.048 48.4318L144.043 48.5146L135.921 49.765Z" fill="#6C63FF"/>
<path d="M125.019 45.5945C124.815 45.8376 124.563 46.0348 124.278 46.1731C123.992 46.3114 123.681 46.3876 123.365 46.3968C123.048 46.4059 122.733 46.3478 122.44 46.2263C122.147 46.1047 121.884 45.9225 121.667 45.6916C119.698 43.6257 122.916 40.5238 124.892 42.5941C124.961 42.6655 125.026 42.7416 125.085 42.8219L135.049 42.574L136.238 40.3975L139.893 41.8176C139.191 42.9065 138.385 47.18 136.55 46.972C136.309 46.9784 125.265 45.6121 125.019 45.5945Z" fill="#A0616A"/>
<path d="M138.347 43.9477L135.562 41.9024C135.367 41.7586 135.236 41.5432 135.2 41.3034C135.163 41.0636 135.223 40.819 135.366 40.6232L138.913 35.7869C139.118 35.5069 139.376 35.2701 139.673 35.0901C139.97 34.91 140.299 34.7902 140.642 34.7375C140.985 34.6847 141.335 34.7002 141.672 34.7828C142.009 34.8655 142.326 35.0137 142.606 35.2192C142.886 35.4246 143.122 35.6832 143.302 35.9801C143.482 36.277 143.602 36.6065 143.654 36.9497C143.707 37.2929 143.691 37.6431 143.609 37.9803C143.526 38.3176 143.378 38.6352 143.172 38.9151L139.626 43.7514C139.482 43.9468 139.267 44.0772 139.027 44.114C138.787 44.1508 138.543 44.091 138.347 43.9477V43.9477Z" fill="#6C63FF"/>
<path d="M143.167 25.6829C142.462 25.9064 141.729 26.0326 140.989 26.0582C140.25 26.0498 139.482 25.8148 138.983 25.2693C138.274 24.4946 138.284 23.2324 138.832 22.3368C139.381 21.4413 140.366 20.8834 141.384 20.6279C142.402 20.3725 143.466 20.3845 144.515 20.3987C145.762 19.4893 147.579 19.6276 148.858 20.4905C150.137 21.3534 150.919 22.8161 151.251 24.3236C151.582 25.831 151.51 27.3961 151.384 28.9345C151.315 29.7776 151.386 30.8721 152.191 31.1306C152.699 31.2937 153.247 30.9945 153.611 30.6043C153.976 30.2141 154.23 29.7293 154.61 29.3551C155.421 28.5577 156.722 28.3961 157.793 28.777C158.864 29.158 159.719 30.0063 160.321 30.971C161.143 32.2871 161.545 33.8226 161.472 35.3728C161.4 36.9231 160.857 38.4144 159.916 39.648C158.975 40.8816 157.68 41.7989 156.205 42.2776C154.73 42.7563 153.144 42.7737 151.659 42.3274C148.91 41.5016 146.835 39.1805 145.5 36.6389C143.788 33.3632 143.08 29.655 143.464 25.9785L143.167 25.6829Z" fill="#2F2E41"/>
<path d="M176.797 97H0.203215C0.149319 97 0.0976302 96.9786 0.05952 96.9404C0.0214099 96.9023 0 96.8506 0 96.7966C0 96.7427 0.0214099 96.691 0.05952 96.6529C0.0976302 96.6147 0.149319 96.5933 0.203215 96.5933H176.797C176.851 96.5933 176.902 96.6147 176.94 96.6529C176.979 96.691 177 96.7427 177 96.7966C177 96.8506 176.979 96.9023 176.94 96.9404C176.902 96.9786 176.851 97 176.797 97Z" fill="#3F3D56"/>
</g>
<defs>
<clipPath id="clip0_8_115">
<rect width="177" height="97" fill="white"/>
</clipPath>
</defs>
</svg>
