<svg width="193" height="120" viewBox="0 0 193 120" fill="none" xmlns="http://www.w3.org/2000/svg">
<g clip-path="url(#clip0_8_27)">
<path d="M18.2016 116.188C19.0557 117.336 20.1144 118.317 21.3248 119.083C21.5822 119.246 21.8465 119.399 22.1154 119.541H28.4422C28.3664 119.39 28.2928 119.237 28.2216 119.083C26.2599 114.954 25.6447 110.315 26.4626 105.819C27.2805 101.323 29.4902 97.1953 32.7812 94.0167C28.957 95.195 25.4225 97.4921 23.1105 100.75C21.9871 102.336 21.1882 104.128 20.7594 106.023C20.3774 102.233 20.9846 98.4102 22.5221 94.9245C19.4174 97.444 16.9996 100.894 16.0781 104.778C15.1565 108.664 15.8252 112.976 18.2016 116.188Z" fill="#F0F0F0"/>
<path d="M192 64.4169H148.985C148.72 64.4166 148.466 64.3114 148.278 64.1243C148.091 63.9373 147.985 63.6836 147.985 63.4191V36.8756C147.985 36.6111 148.091 36.3574 148.278 36.1704C148.466 35.9833 148.72 35.8781 148.985 35.8778H192C192.265 35.8781 192.519 35.9833 192.707 36.1704C192.894 36.3574 193 36.6111 193 36.8756V63.4191C193 63.6836 192.894 63.9373 192.707 64.1243C192.519 64.3114 192.265 64.4166 192 64.4169Z" fill="white"/>
<path d="M192 64.4169H148.985C148.72 64.4166 148.466 64.3114 148.278 64.1243C148.091 63.9373 147.985 63.6836 147.985 63.4191V36.8756C147.985 36.6111 148.091 36.3574 148.278 36.1704C148.466 35.9833 148.72 35.8781 148.985 35.8778H192C192.265 35.8781 192.519 35.9833 192.707 36.1704C192.894 36.3574 193 36.6111 193 36.8756V63.4191C193 63.6836 192.894 63.9373 192.707 64.1243C192.519 64.3114 192.265 64.4166 192 64.4169ZM148.985 36.2769C148.826 36.2771 148.673 36.3402 148.561 36.4525C148.448 36.5647 148.385 36.7169 148.385 36.8756V63.4191C148.385 63.5778 148.448 63.73 148.561 63.8422C148.673 63.9545 148.826 64.0176 148.985 64.0178H192C192.159 64.0176 192.311 63.9545 192.424 63.8422C192.536 63.73 192.6 63.5778 192.6 63.4191V36.8756C192.6 36.7169 192.536 36.5647 192.424 36.4525C192.311 36.3402 192.159 36.2771 192 36.2769H148.985Z" fill="#3F3D56"/>
<path d="M183.497 44.7425H157.488C157.249 44.7425 157.02 44.6479 156.851 44.4795C156.682 44.311 156.588 44.0826 156.588 43.8444C156.588 43.6062 156.682 43.3778 156.851 43.2094C157.02 43.041 157.249 42.9463 157.488 42.9463H183.497C183.736 42.9463 183.965 43.041 184.133 43.2094C184.302 43.3778 184.397 43.6062 184.397 43.8444C184.397 44.0826 184.302 44.311 184.133 44.4795C183.965 44.6479 183.736 44.7425 183.497 44.7425V44.7425Z" fill="#CCCCCC"/>
<path d="M183.497 50.9293H157.488C157.249 50.9293 157.02 50.8347 156.851 50.6663C156.682 50.4979 156.588 50.2694 156.588 50.0312C156.588 49.7931 156.682 49.5646 156.851 49.3962C157.02 49.2278 157.249 49.1331 157.488 49.1331H183.497C183.736 49.1331 183.965 49.2278 184.133 49.3962C184.302 49.5646 184.397 49.7931 184.397 50.0312C184.397 50.2694 184.302 50.4979 184.133 50.6663C183.965 50.8347 183.736 50.9293 183.497 50.9293V50.9293Z" fill="#CCCCCC"/>
<path d="M181.18 60.7387C182.957 60.7387 184.397 59.3017 184.397 57.5292C184.397 55.7566 182.957 54.3196 181.18 54.3196C179.403 54.3196 177.962 55.7566 177.962 57.5292C177.962 59.3017 179.403 60.7387 181.18 60.7387Z" fill="#6C63FF"/>
<path d="M181.268 56.0172V55.7114H181.359V56.0172C181.487 56.0227 181.613 56.0535 181.73 56.1077C181.814 56.1473 181.887 56.208 181.942 56.2838C181.992 56.3539 182.019 56.438 182.018 56.5241C182.02 56.5871 181.999 56.6486 181.959 56.6971C181.941 56.7192 181.919 56.7371 181.894 56.7493C181.868 56.7615 181.841 56.7677 181.813 56.7676C181.792 56.768 181.771 56.7641 181.751 56.7561C181.732 56.7481 181.714 56.7363 181.7 56.7213C181.684 56.7064 181.672 56.6885 181.664 56.6687C181.657 56.649 181.653 56.6279 181.653 56.6066C181.653 56.5769 181.659 56.5474 181.671 56.5201L181.708 56.4437C181.72 56.4117 181.727 56.3775 181.726 56.3431C181.727 56.2898 181.71 56.2377 181.677 56.1953C181.642 56.1507 181.594 56.1175 181.54 56.0997C181.481 56.0804 181.421 56.0682 181.359 56.0634V57.1638L181.379 57.1759C181.568 57.276 181.741 57.4057 181.889 57.5601C181.955 57.6377 182.007 57.7258 182.043 57.8207C182.08 57.9127 182.098 58.0105 182.099 58.1093C182.101 58.2373 182.067 58.3632 182.002 58.4735C181.939 58.5811 181.846 58.6684 181.734 58.7249C181.616 58.7825 181.489 58.8193 181.359 58.8336V59.1615H181.268V58.8396C181.136 58.8386 181.006 58.8119 180.885 58.7611C180.764 58.7162 180.657 58.6398 180.575 58.5399C180.503 58.4502 180.465 58.3388 180.465 58.224C180.463 58.1434 180.488 58.0644 180.536 57.9997C180.555 57.9718 180.581 57.9489 180.61 57.933C180.64 57.917 180.674 57.9085 180.707 57.9082C180.728 57.9075 180.748 57.9109 180.767 57.9183C180.786 57.9258 180.803 57.937 180.817 57.9513C180.832 57.9656 180.843 57.9827 180.85 58.0015C180.858 58.0203 180.861 58.0405 180.861 58.0607C180.854 58.1227 180.828 58.1809 180.786 58.2273C180.764 58.2561 180.746 58.287 180.731 58.3197C180.72 58.3452 180.715 58.3725 180.715 58.4C180.716 58.4733 180.741 58.5444 180.787 58.6016C180.837 58.6657 180.904 58.7153 180.98 58.7451C181.066 58.7789 181.159 58.7952 181.252 58.7933H181.268V57.4797L181.153 57.4133C181.044 57.3503 180.961 57.298 180.904 57.2564C180.848 57.216 180.796 57.1702 180.75 57.1196C180.634 56.9965 180.57 56.8338 180.57 56.6649C180.57 56.5598 180.596 56.4563 180.647 56.3642C180.697 56.2723 180.77 56.195 180.859 56.1399C180.983 56.0653 181.123 56.0231 181.268 56.0172V56.0172ZM181.268 56.0614C181.19 56.0639 181.113 56.0809 181.041 56.1117C180.969 56.1471 180.91 56.2039 180.872 56.2743C180.829 56.3508 180.807 56.4374 180.808 56.5252C180.807 56.6324 180.84 56.737 180.903 56.8244C180.935 56.8719 180.975 56.9146 181.02 56.9509C181.093 57.0051 181.169 57.0547 181.248 57.0995L181.268 57.1116V56.0614ZM181.359 58.7893C181.411 58.785 181.462 58.7742 181.511 58.7571C181.551 58.7417 181.589 58.72 181.622 58.6928C181.684 58.6399 181.732 58.5725 181.762 58.4966C181.797 58.4128 181.815 58.3229 181.815 58.2321C181.807 58.0863 181.76 57.9453 181.68 57.8231C181.6 57.7009 181.489 57.6019 181.359 57.536V58.7893Z" fill="white"/>
<path d="M162.698 46.65H119.683C119.418 46.6497 119.164 46.5445 118.976 46.3574C118.789 46.1703 118.683 45.9167 118.683 45.6521V19.1087C118.683 18.8441 118.789 18.5905 118.976 18.4034C119.164 18.2163 119.418 18.1111 119.683 18.1108H162.698C162.963 18.1111 163.217 18.2163 163.405 18.4034C163.592 18.5905 163.698 18.8441 163.698 19.1087V45.6521C163.698 45.9167 163.592 46.1703 163.405 46.3574C163.217 46.5445 162.963 46.6497 162.698 46.65V46.65Z" fill="white"/>
<path d="M162.698 46.65H119.683C119.418 46.6497 119.164 46.5445 118.976 46.3574C118.789 46.1703 118.683 45.9167 118.683 45.6521V19.1087C118.683 18.8441 118.789 18.5905 118.976 18.4034C119.164 18.2163 119.418 18.1111 119.683 18.1108H162.698C162.963 18.1111 163.217 18.2163 163.405 18.4034C163.592 18.5905 163.698 18.8441 163.698 19.1087V45.6521C163.698 45.9167 163.592 46.1703 163.405 46.3574C163.217 46.5445 162.963 46.6497 162.698 46.65V46.65ZM119.683 18.51C119.524 18.5101 119.372 18.5733 119.259 18.6855C119.147 18.7978 119.083 18.9499 119.083 19.1087V45.6521C119.083 45.8109 119.147 45.963 119.259 46.0753C119.372 46.1875 119.524 46.2507 119.683 46.2508H162.698C162.857 46.2507 163.01 46.1875 163.122 46.0753C163.235 45.963 163.298 45.8109 163.298 45.6521V19.1087C163.298 18.9499 163.235 18.7978 163.122 18.6855C163.01 18.5733 162.857 18.5101 162.698 18.51H119.683Z" fill="#3F3D56"/>
<path d="M154.195 26.9756H128.186C127.947 26.9756 127.718 26.881 127.55 26.7125C127.381 26.5441 127.286 26.3157 127.286 26.0775C127.286 25.8393 127.381 25.6109 127.55 25.4424C127.718 25.274 127.947 25.1794 128.186 25.1794H154.195C154.434 25.1794 154.663 25.274 154.832 25.4424C155 25.6109 155.095 25.8393 155.095 26.0775C155.095 26.3157 155 26.5441 154.832 26.7125C154.663 26.881 154.434 26.9756 154.195 26.9756V26.9756Z" fill="#CCCCCC"/>
<path d="M154.195 33.1624H128.186C127.947 33.1624 127.718 33.0678 127.55 32.8993C127.381 32.7309 127.286 32.5025 127.286 32.2643C127.286 32.0261 127.381 31.7977 127.55 31.6293C127.718 31.4608 127.947 31.3662 128.186 31.3662H154.195C154.434 31.3662 154.663 31.4608 154.832 31.6293C155 31.7977 155.095 32.0261 155.095 32.2643C155.095 32.5025 155 32.7309 154.832 32.8993C154.663 33.0678 154.434 33.1624 154.195 33.1624V33.1624Z" fill="#CCCCCC"/>
<path d="M151.878 42.9717C153.655 42.9717 155.095 41.5348 155.095 39.7622C155.095 37.9896 153.655 36.5527 151.878 36.5527C150.101 36.5527 148.66 37.9896 148.66 39.7622C148.66 41.5348 150.101 42.9717 151.878 42.9717Z" fill="#6C63FF"/>
<path d="M151.966 38.2502V37.9445H152.057V38.2502C152.186 38.2558 152.312 38.2866 152.428 38.3408C152.513 38.3804 152.586 38.441 152.64 38.5168C152.69 38.587 152.717 38.671 152.717 38.7572C152.718 38.8202 152.697 38.8817 152.657 38.9302C152.64 38.9523 152.617 38.9702 152.592 38.9824C152.567 38.9946 152.539 39.0008 152.511 39.0006C152.49 39.001 152.469 38.9971 152.45 38.9892C152.43 38.9812 152.413 38.9694 152.398 38.9543C152.383 38.9394 152.371 38.9215 152.363 38.9018C152.355 38.8821 152.351 38.8609 152.352 38.8397C152.352 38.8099 152.358 38.7805 152.37 38.7532L152.406 38.6767C152.419 38.6448 152.425 38.6106 152.424 38.5761C152.425 38.5228 152.408 38.4708 152.376 38.4283C152.34 38.3838 152.293 38.3506 152.239 38.3327C152.18 38.3135 152.119 38.3013 152.057 38.2965V39.3969L152.077 39.409C152.267 39.5091 152.439 39.6388 152.587 39.7932C152.653 39.8708 152.705 39.9589 152.742 40.0538C152.778 40.1457 152.797 40.2436 152.797 40.3424C152.799 40.4703 152.765 40.5962 152.7 40.7065C152.637 40.8142 152.544 40.9015 152.432 40.958C152.314 41.0156 152.187 41.0524 152.057 41.0666V41.3945H151.966V41.0727C151.835 41.0716 151.705 41.045 151.583 40.9942C151.462 40.9493 151.355 40.8729 151.274 40.7729C151.202 40.6833 151.163 40.5718 151.164 40.4571C151.161 40.3765 151.186 40.2974 151.234 40.2327C151.253 40.2049 151.279 40.182 151.309 40.166C151.339 40.1501 151.372 40.1416 151.406 40.1412C151.426 40.1405 151.446 40.144 151.465 40.1514C151.484 40.1588 151.501 40.17 151.516 40.1843C151.53 40.1986 151.541 40.2157 151.549 40.2346C151.556 40.2534 151.56 40.2736 151.559 40.2938C151.552 40.3557 151.526 40.414 151.484 40.4604C151.463 40.4891 151.444 40.5201 151.429 40.5527C151.419 40.5782 151.413 40.6055 151.414 40.633C151.414 40.7064 151.439 40.7775 151.485 40.8347C151.536 40.8988 151.602 40.9484 151.678 40.9782C151.765 41.0119 151.857 41.0283 151.95 41.0264H151.966V39.7127L151.851 39.6464C151.742 39.5834 151.659 39.531 151.602 39.4894C151.546 39.4491 151.495 39.4032 151.448 39.3526C151.332 39.2295 151.268 39.0669 151.269 38.898C151.268 38.7929 151.294 38.6894 151.345 38.5973C151.395 38.5054 151.468 38.4281 151.557 38.3729C151.681 38.2984 151.822 38.2562 151.966 38.2502V38.2502ZM151.966 38.2945C151.888 38.2969 151.811 38.314 151.739 38.3447C151.668 38.3802 151.609 38.437 151.571 38.5073C151.528 38.5839 151.505 38.6705 151.507 38.7583C151.506 38.8654 151.539 38.9701 151.601 39.0575C151.634 39.105 151.673 39.1476 151.718 39.184C151.791 39.2382 151.867 39.2878 151.946 39.3325L151.966 39.3446V38.2945ZM152.057 41.0224C152.109 41.018 152.16 41.0072 152.21 40.9902C152.25 40.9747 152.287 40.953 152.32 40.9258C152.382 40.8729 152.431 40.8056 152.461 40.7297C152.496 40.6459 152.513 40.5559 152.513 40.4651C152.505 40.3194 152.459 40.1783 152.378 40.0562C152.298 39.934 152.188 39.835 152.057 39.7691V41.0224Z" fill="white"/>
<path d="M73.5291 42.6893C73.1543 42.6623 72.7782 42.7176 72.4272 42.8513C72.0762 42.985 71.7588 43.1938 71.4975 43.463C71.2361 43.7323 71.0371 44.0554 70.9145 44.4097C70.7919 44.764 70.7486 45.1408 70.7878 45.5135L62.5184 49.3807L66.5659 51.853L73.7981 47.8016C74.4215 47.6945 74.9839 47.3629 75.3786 46.8699C75.7734 46.3768 75.9731 45.7564 75.9399 45.1263C75.9067 44.4961 75.643 43.9 75.1987 43.4508C74.7544 43.0017 74.1603 42.7308 73.5291 42.6893V42.6893Z" fill="#FFB6B6"/>
<path d="M39.31 117.094L42.166 117.094L43.5247 106.106L39.3096 106.106L39.31 117.094Z" fill="#FFB6B6"/>
<path d="M38.5816 116.164L44.2059 116.164H44.2062C45.1567 116.164 46.0684 116.541 46.7405 117.211C47.4127 117.882 47.7903 118.791 47.7904 119.739V119.856L38.5818 119.856L38.5816 116.164Z" fill="#2F2E41"/>
<path d="M53.8828 117.094L56.7387 117.094L58.0974 106.106L53.8823 106.106L53.8828 117.094Z" fill="#FFB6B6"/>
<path d="M53.1544 116.164L58.7786 116.164H58.7789C59.7294 116.164 60.6411 116.541 61.3132 117.211C61.9854 117.882 62.363 118.791 62.3631 119.739V119.856L53.1545 119.856L53.1544 116.164Z" fill="#2F2E41"/>
<path d="M55.7905 60.1002L57.2399 63.2132L59.8532 91.0529L57.8218 114.982H53.0708L47.4647 77.2644L44.8314 114.113L38.4209 113.855L37.1902 63.8963L55.7905 60.1002Z" fill="#2F2E41"/>
<path d="M32.6912 34.4093L38.7008 31.9703L47.1831 32.4449L54.7241 35.1862L57.24 63.2132C50.6796 66.7868 44.0341 67.7622 37.273 65.2069L30.9981 46.9522L32.6912 34.4093Z" fill="#E4E4E4"/>
<path d="M52.3779 35.9271L55.0447 35.1862C55.0447 35.1862 57.0618 33.8779 57.7255 37.767C58.3892 41.6561 61.804 47.7054 61.804 47.7054L67.6499 44.5976L70.3564 50.4937L61.1244 56.0722L51.4024 46.3005L52.3779 35.9271Z" fill="#E4E4E4"/>
<path d="M37.7498 26.7777C37.4259 26.0446 37.25 25.2551 37.232 24.4542C37.214 23.6533 37.3543 22.8568 37.645 22.11C37.9356 21.3632 38.3708 20.6808 38.9258 20.1018C39.4808 19.5228 40.1447 19.0586 40.8796 18.7355C41.6145 18.4124 42.4059 18.2369 43.2088 18.219C44.0116 18.2011 44.8102 18.341 45.5588 18.631C46.3074 18.9209 46.9915 19.355 47.5719 19.9087C48.1523 20.4623 48.6178 21.1245 48.9416 21.8576L48.9766 21.9383C49.6201 23.4237 49.6456 25.1032 49.0477 26.6074C48.7516 27.3523 48.3114 28.0316 47.7521 28.6067C47.1929 29.1818 46.5255 29.6414 45.7882 29.9592C44.2991 30.6011 42.6154 30.6266 41.1075 30.0301C39.5996 29.4337 38.3909 28.2641 37.7475 26.7787L37.7498 26.7777Z" fill="#FFB6B6"/>
<path d="M46.052 21.1946C47.3236 21.4248 49.2914 22.2233 50.3834 21.2865C49.8441 20.6578 49.1657 20.1628 48.4017 19.8405C48.2512 19.7907 48.1119 19.7122 47.9915 19.6093C47.6192 19.2339 47.9069 18.5872 47.7365 18.0797C47.6537 17.8943 47.529 17.7305 47.372 17.6014C47.215 17.4723 47.0301 17.3813 46.8318 17.3356C46.4528 17.2225 46.0556 17.2041 45.6832 17.0669C44.8021 16.7366 44.1756 15.7912 43.2724 15.5343C42.4855 15.3072 41.6936 15.6601 41.0145 16.0719C40.3353 16.4838 39.6635 16.9724 38.8689 17.0505C38.2752 17.1046 37.8993 18.0788 37.3032 18.1073C36.0541 18.1679 36.1235 17.3467 36.0311 18.6557C35.9778 19.4368 34.8589 20.9908 34.8771 21.7787C34.8956 22.295 34.804 22.8064 34.8188 23.3242C34.8524 24.3106 35.249 25.2501 35.9328 25.9633C36.5015 26.5466 37.2412 26.9401 37.7199 27.605C37.9688 27.958 38.1415 28.3701 38.4313 28.6895C38.7211 29.0089 39.2119 29.2012 39.5353 28.9731C39.8588 28.7451 39.8648 28.2516 40.0253 27.876C40.1237 27.6458 40.2919 27.452 40.5062 27.3219C40.7205 27.1917 40.9703 27.1317 41.2205 27.1502C41.4804 27.1841 41.7257 27.2897 41.9287 27.455C42.1317 27.6204 42.2845 27.8389 42.3698 28.0862C42.2184 27.2562 41.8191 26.4786 41.6673 25.6481C41.5156 24.8176 41.7134 23.8254 42.4303 23.5011C42.7381 23.3583 43.1539 23.3199 43.2777 22.9906C43.3534 22.7923 43.2841 22.558 43.3133 22.3435C43.4708 21.2924 45.2229 21.0323 46.052 21.1946Z" fill="#2F2E41"/>
<path d="M37.9935 64.8828C37.9387 64.512 37.8031 64.1578 37.5961 63.8449C37.3892 63.5321 37.1161 63.2683 36.7959 63.0722C36.4757 62.876 36.1163 62.7523 35.7431 62.7097C35.3698 62.6671 34.9917 62.7066 34.6354 62.8256L29.058 55.6112L27.5161 60.0887L33.0489 66.2531C33.2888 66.837 33.7352 67.3127 34.3033 67.5903C34.8714 67.8678 35.5218 67.9277 36.1313 67.7588C36.7408 67.5899 37.267 67.2039 37.6102 66.6738C37.9534 66.1437 38.0898 65.5065 37.9935 64.8828V64.8828Z" fill="#FFB6B6"/>
<path d="M34.6177 35.77L32.6912 34.4093C32.6912 34.4093 28.284 34.1574 27.6429 37.767L19.5618 51.028L29.5814 64.8169L34.4391 59.7159L28.3097 52.5706L33.456 43.1449L34.6177 35.77Z" fill="#E4E4E4"/>
<path d="M81.5517 37.8713H81.4506V35.1095C81.4506 34.8996 81.4092 34.6917 81.3287 34.4978C81.2481 34.3038 81.1301 34.1276 80.9813 33.9792C80.8325 33.8308 80.6559 33.713 80.4615 33.6327C80.267 33.5524 80.0587 33.511 79.8482 33.511H73.9825C73.7721 33.511 73.5637 33.5524 73.3693 33.6327C73.1749 33.713 72.9983 33.8308 72.8495 33.9792C72.7007 34.1276 72.5826 34.3038 72.5021 34.4978C72.4216 34.6917 72.3801 34.8996 72.3801 35.1095V50.2609C72.3801 50.4708 72.4216 50.6787 72.5021 50.8726C72.5826 51.0665 72.7007 51.2428 72.8495 51.3912C72.9983 51.5396 73.1749 51.6574 73.3693 51.7377C73.5637 51.818 73.7721 51.8594 73.9825 51.8594H79.8482C80.0587 51.8594 80.267 51.818 80.4614 51.7377C80.6559 51.6574 80.8325 51.5396 80.9813 51.3912C81.1301 51.2428 81.2481 51.0665 81.3287 50.8726C81.4092 50.6787 81.4506 50.4708 81.4506 50.2609V39.8372H81.5517V37.8713Z" fill="#3F3D56"/>
<path d="M79.9129 33.9269H79.1472C79.1824 34.013 79.1959 34.1064 79.1864 34.1989C79.1768 34.2915 79.1447 34.3802 79.0927 34.4574C79.0407 34.5346 78.9704 34.5978 78.8881 34.6416C78.8059 34.6853 78.7141 34.7082 78.6208 34.7082H75.2604C75.1672 34.7082 75.0754 34.6853 74.9931 34.6416C74.9109 34.5978 74.8406 34.5346 74.7886 34.4574C74.7366 34.3802 74.7044 34.2914 74.6949 34.1989C74.6854 34.1064 74.6989 34.013 74.7341 33.9269H74.0189C73.7016 33.9269 73.3972 34.0526 73.1728 34.2765C72.9483 34.5004 72.8223 34.804 72.8223 35.1206V50.2498C72.8223 50.5664 72.9483 50.87 73.1728 51.0939C73.3972 51.3177 73.7016 51.4435 74.0189 51.4435H79.9129C80.2303 51.4435 80.5346 51.3177 80.759 51.0939C80.9835 50.87 81.1095 50.5664 81.1095 50.2498V35.1206C81.1095 34.804 80.9835 34.5004 80.759 34.2765C80.5346 34.0526 80.2303 33.9269 79.9129 33.9269Z" fill="#6C63FF"/>
<path d="M132.822 28.5392H89.807C89.5418 28.5389 89.2876 28.4336 89.1 28.2466C88.9125 28.0595 88.807 27.8059 88.8067 27.5413V0.997876C88.807 0.733316 88.9125 0.479677 89.1 0.292605C89.2876 0.105533 89.5418 0.000302771 89.807 0H132.822C133.087 0.000302772 133.341 0.105533 133.529 0.292605C133.716 0.479677 133.822 0.733316 133.822 0.997876V27.5413C133.822 27.8059 133.716 28.0595 133.529 28.2466C133.341 28.4336 133.087 28.5389 132.822 28.5392V28.5392Z" fill="white"/>
<path d="M132.822 28.5392H89.807C89.5418 28.5389 89.2876 28.4336 89.1 28.2466C88.9125 28.0595 88.807 27.8059 88.8067 27.5413V0.997876C88.807 0.733316 88.9125 0.479677 89.1 0.292605C89.2876 0.105533 89.5418 0.000302771 89.807 0H132.822C133.087 0.000302772 133.341 0.105533 133.529 0.292605C133.716 0.479677 133.822 0.733316 133.822 0.997876V27.5413C133.822 27.8059 133.716 28.0595 133.529 28.2466C133.341 28.4336 133.087 28.5389 132.822 28.5392V28.5392ZM89.807 0.39915C89.6479 0.399323 89.4954 0.462459 89.3828 0.574705C89.2703 0.68695 89.207 0.839137 89.2068 0.997876V27.5413C89.207 27.7 89.2703 27.8522 89.3828 27.9645C89.4954 28.0767 89.6479 28.1399 89.807 28.14H132.822C132.981 28.1399 133.133 28.0767 133.246 27.9645C133.358 27.8522 133.422 27.7 133.422 27.5413V0.997876C133.422 0.839137 133.358 0.68695 133.246 0.574705C133.133 0.462459 132.981 0.399323 132.822 0.39915H89.807Z" fill="#3F3D56"/>
<path d="M124.319 8.86475H98.3099C98.0711 8.86475 97.8421 8.77013 97.6733 8.60171C97.5045 8.43328 97.4096 8.20485 97.4096 7.96666C97.4096 7.72847 97.5045 7.50004 97.6733 7.33162C97.8421 7.16319 98.0711 7.06857 98.3099 7.06857H124.319C124.558 7.06857 124.787 7.16319 124.955 7.33162C125.124 7.50004 125.219 7.72847 125.219 7.96666C125.219 8.20485 125.124 8.43328 124.955 8.60171C124.787 8.77013 124.558 8.86475 124.319 8.86475V8.86475Z" fill="#CCCCCC"/>
<path d="M124.319 15.0516H98.3099C98.0711 15.0516 97.8421 14.9569 97.6733 14.7885C97.5045 14.6201 97.4096 14.3917 97.4096 14.1535C97.4096 13.9153 97.5045 13.6869 97.6733 13.5184C97.8421 13.35 98.0711 13.2554 98.3099 13.2554H124.319C124.558 13.2554 124.787 13.35 124.955 13.5184C125.124 13.6869 125.219 13.9153 125.219 14.1535C125.219 14.3917 125.124 14.6201 124.955 14.7885C124.787 14.9569 124.558 15.0516 124.319 15.0516Z" fill="#CCCCCC"/>
<path d="M122.002 24.8609C123.779 24.8609 125.219 23.424 125.219 21.6514C125.219 19.8788 123.779 18.4419 122.002 18.4419C120.225 18.4419 118.784 19.8788 118.784 21.6514C118.784 23.424 120.225 24.8609 122.002 24.8609Z" fill="#6C63FF"/>
<path d="M122.09 20.1394V19.8336H122.181V20.1394C122.309 20.145 122.435 20.1758 122.552 20.23C122.636 20.2696 122.709 20.3302 122.764 20.406C122.814 20.4762 122.841 20.5602 122.84 20.6464C122.842 20.7094 122.821 20.7708 122.781 20.8194C122.763 20.8415 122.741 20.8593 122.716 20.8716C122.69 20.8838 122.663 20.89 122.635 20.8898C122.614 20.8902 122.593 20.8863 122.573 20.8784C122.554 20.8704 122.536 20.8585 122.522 20.8435C122.506 20.8286 122.494 20.8107 122.487 20.791C122.479 20.7713 122.475 20.7501 122.475 20.7289C122.475 20.6991 122.481 20.6697 122.493 20.6424L122.53 20.5659C122.543 20.534 122.549 20.4997 122.548 20.4653C122.549 20.412 122.532 20.3599 122.499 20.3175C122.464 20.273 122.416 20.2398 122.362 20.2219C122.303 20.2027 122.243 20.1905 122.181 20.1857V21.2861L122.201 21.2982C122.391 21.3983 122.563 21.528 122.711 21.6824C122.777 21.76 122.829 21.8481 122.865 21.9429C122.902 22.0349 122.92 22.1328 122.921 22.2316C122.923 22.3595 122.889 22.4854 122.824 22.5957C122.761 22.7034 122.668 22.7906 122.556 22.8472C122.438 22.9048 122.311 22.9416 122.181 22.9558V23.2837H122.09V22.9619C121.958 22.9608 121.828 22.9342 121.707 22.8834C121.586 22.8385 121.479 22.7621 121.397 22.6621C121.326 22.5725 121.287 22.461 121.287 22.3463C121.285 22.2657 121.31 22.1866 121.358 22.1219C121.377 22.094 121.403 22.0712 121.432 22.0552C121.462 22.0393 121.496 22.0308 121.529 22.0304C121.55 22.0297 121.57 22.0332 121.589 22.0406C121.608 22.048 121.625 22.0592 121.639 22.0735C121.654 22.0878 121.665 22.1049 121.672 22.1238C121.68 22.1426 121.683 22.1628 121.683 22.183C121.676 22.2449 121.65 22.3032 121.608 22.3496C121.586 22.3783 121.568 22.4093 121.553 22.4419C121.542 22.4674 121.537 22.4947 121.537 22.5222C121.538 22.5956 121.563 22.6666 121.609 22.7239C121.659 22.788 121.726 22.8375 121.802 22.8674C121.888 22.9011 121.981 22.9175 122.074 22.9156H122.09V21.6019L121.975 21.5356C121.866 21.4725 121.783 21.4202 121.726 21.3786C121.67 21.3383 121.619 21.2924 121.572 21.2418C121.456 21.1187 121.392 20.9561 121.392 20.7872C121.392 20.6821 121.418 20.5786 121.469 20.4865C121.519 20.3946 121.592 20.3172 121.681 20.2621C121.805 20.1876 121.945 20.1454 122.09 20.1394ZM122.09 20.1837C122.012 20.1861 121.935 20.2031 121.863 20.2339C121.791 20.2694 121.732 20.3262 121.694 20.3965C121.651 20.4731 121.629 20.5596 121.63 20.6475C121.629 20.7546 121.662 20.8593 121.725 20.9467C121.758 20.9942 121.797 21.0368 121.842 21.0732C121.915 21.1274 121.991 21.177 122.07 21.2217L122.09 21.2338V20.1837ZM122.181 22.9116C122.233 22.9072 122.284 22.8964 122.333 22.8794C122.373 22.8639 122.411 22.8422 122.444 22.815C122.506 22.7621 122.554 22.6948 122.584 22.6189C122.619 22.5351 122.637 22.4451 122.637 22.3543C122.629 22.2086 122.582 22.0675 122.502 21.9453C122.422 21.8232 122.311 21.7241 122.181 21.6583V22.9116Z" fill="white"/>
<path d="M87.7903 120H0.229817C0.168866 120 0.110411 119.976 0.0673118 119.933C0.0242127 119.89 0 119.832 0 119.771C0 119.71 0.0242127 119.652 0.0673118 119.609C0.110411 119.566 0.168866 119.541 0.229817 119.541H87.7903C87.8512 119.541 87.9097 119.566 87.9528 119.609C87.9959 119.652 88.0201 119.71 88.0201 119.771C88.0201 119.832 87.9959 119.89 87.9528 119.933C87.9097 119.976 87.8512 120 87.7903 120Z" fill="#CACACA"/>
</g>
<defs>
<clipPath id="clip0_8_27">
<rect width="193" height="120" fill="white"/>
</clipPath>
</defs>
</svg>
